# xmcd
#
# Track frame offsets:
# 150
# 24243
# 45375
# 75457
# 98409
# 126777
# 144009
# 163469
# 183931
# 200544
# 229414
#
# Disc length: 3175 seconds
#
# Revision: 0
# Processed by: cddbd v1.4PL0 Copyright (c) Steve Scherf et al.
# Submitted via: Axialis_AX_CDPlayer 2.6
#
DISCID=810c650b
DTITLE=BAGNEO - Migration
DYEAR=1900
DGENRE=
TTITLE0=Long and Crowded Sreet
TTITLE1=Dresden
TTITLE2=Daisy
TTITLE3=4:19
TTITLE4=Migration
TTITLE5=Chubby
TTITLE6=Rattlesnake High
TTITLE7=Switchback
TTITLE8=North Platte
TTITLE9=Snake Charmer
TTITLE10=Running Water
EXTD=
EXTT0=
EXTT1=
EXTT2=
EXTT3=
EXTT4=
EXTT5=
EXTT6=
EXTT7=
EXTT8=
EXTT9=
EXTT10=
PLAYORDER=
